<svg id="Layer_1" xmlns="http://www.w3.org/2000/svg" viewBox="0 0 1000 1000"><defs><style>.cls-1{fill:#c0392b;}.cls-2{fill:#f6f6f6;}</style></defs><path class="cls-1" d="M754.78,378.61c0,140.71-233.09,497.56-254.78,497.56S245.22,519.32,245.22,378.61,359.29,123.83,500,123.83,754.78,237.9,754.78,378.61Z"/><circle class="cls-2" cx="500" cy="374.42" r="187.74" transform="translate(-118.31 463.22) rotate(-45)"/><path class="cls-1" d="M564.63,315.81c4-17.67-3.1-74.68-3.1-74.68h-4v57h-5.3v-57h-5.52v57H541v-57h-5.52v57h-5.31v-57h-4s-7.07,57-3.1,74.68S539,339.68,539,339.68s-20.77,181.19,4.86,181.19,4.87-181.19,4.87-181.19S560.65,333.49,564.63,315.81Z"/><path class="cls-1" d="M491.26,294.94c0-25.82-8.21-39.36-16.51-46.45a26.22,26.22,0,0,0-34.08,0c-8.3,7.09-16.51,20.63-16.51,46.45,0,40.15,25.95,35.59,28.54,49.69,0,.21.08.43.11.64-2.33,21.43-18.34,175.57,5,175.57,23.77,0,6.83-159.32,4.94-176.53C465.71,330.6,491.26,334.78,491.26,294.94Z"/></svg>